
<region>
sample=..\Samples\darkblack\btb_extra\darkblack_b1_btb_open_rr1.wav
lokey=35
hikey=39
pitch_keycenter=35

<region>
sample=..\Samples\darkblack\btb_extra\darkblack_b1_btb_open_rr2.wav
lokey=35
hikey=39
seq_position=2
pitch_keycenter=35

<region>
sample=..\Samples\darkblack\btb_extra\darkblack_b1_btb_open_rr3.wav
lokey=35
hikey=39
seq_position=3
pitch_keycenter=35

<region>
sample=..\Samples\darkblack\btb_extra\darkblack_b1_btb_open_rr4.wav
lokey=35
hikey=39
seq_position=4
pitch_keycenter=35

<region>
sample=..\Samples\darkblack\btb_extra\darkblack_e2_btb_open_rr1.wav
lokey=40
hikey=44
pitch_keycenter=40

<region>
sample=..\Samples\darkblack\btb_extra\darkblack_e2_btb_open_rr2.wav
lokey=40
hikey=44
seq_position=2
pitch_keycenter=40

<region>
sample=..\Samples\darkblack\btb_extra\darkblack_e2_btb_open_rr3.wav
lokey=40
hikey=44
seq_position=3
pitch_keycenter=40

<region>
sample=..\Samples\darkblack\btb_extra\darkblack_e2_btb_open_rr4.wav
lokey=40
hikey=44
seq_position=4
pitch_keycenter=40

<region>
sample=..\Samples\darkblack\btb_extra\darkblack_a2_btb_open_rr1.wav
lokey=45
hikey=49
pitch_keycenter=45

<region>
sample=..\Samples\darkblack\btb_extra\darkblack_a2_btb_open_rr2.wav
lokey=45
hikey=49
seq_position=2
pitch_keycenter=45

<region>
sample=..\Samples\darkblack\btb_extra\darkblack_a2_btb_open_rr3.wav
lokey=45
hikey=49
seq_position=3
pitch_keycenter=45

<region>
sample=..\Samples\darkblack\btb_extra\darkblack_a2_btb_open_rr4.wav
lokey=45
hikey=49
seq_position=4
pitch_keycenter=45

<region>
sample=..\Samples\darkblack\btb_extra\darkblack_d3_btb_open_rr1.wav
lokey=50
hikey=54
pitch_keycenter=50

<region>
sample=..\Samples\darkblack\btb_extra\darkblack_d3_btb_open_rr2.wav
lokey=50
hikey=54
seq_position=2
pitch_keycenter=50

<region>
sample=..\Samples\darkblack\btb_extra\darkblack_d3_btb_open_rr3.wav
lokey=50
hikey=54
seq_position=3
pitch_keycenter=50

<region>
sample=..\Samples\darkblack\btb_extra\darkblack_d3_btb_open_rr4.wav
lokey=50
hikey=54
seq_position=4
pitch_keycenter=50

<region>
sample=..\Samples\darkblack\btb_extra\darkblack_g3_btb_open_rr1.wav
lokey=55
hikey=76
pitch_keycenter=55

<region>
sample=..\Samples\darkblack\btb_extra\darkblack_g3_btb_open_rr2.wav
lokey=55
hikey=76
seq_position=2
pitch_keycenter=55

<region>
sample=..\Samples\darkblack\btb_extra\darkblack_g3_btb_open_rr3.wav
lokey=55
hikey=76
seq_position=3
pitch_keycenter=55

<region>
sample=..\Samples\darkblack\btb_extra\darkblack_g3_btb_open_rr4.wav
lokey=55
hikey=76
seq_position=4
pitch_keycenter=55

<region>
sample=..\Samples\darkblack\btb_extra\darkblack_btb_fx1_rr1.wav
lokey=81
hikey=81
pitch_keycenter=81

<region>
sample=..\Samples\darkblack\btb_extra\darkblack_btb_fx1_rr2.wav
lokey=81
hikey=81
seq_position=2
pitch_keycenter=81

<region>
sample=..\Samples\darkblack\btb_extra\darkblack_btb_fx1_rr3.wav
lokey=81
hikey=81
seq_position=3
pitch_keycenter=81

<region>
sample=..\Samples\darkblack\btb_extra\darkblack_btb_fx1_rr4.wav
lokey=81
hikey=81
seq_position=4
pitch_keycenter=81

<region>
sample=..\Samples\darkblack\btb_extra\darkblack_btb_fx2_rr1.wav
lokey=82
hikey=82
pitch_keycenter=82

<region>
sample=..\Samples\darkblack\btb_extra\darkblack_btb_fx2_rr2.wav
lokey=82
hikey=82
seq_position=2
pitch_keycenter=82

<region>
sample=..\Samples\darkblack\btb_extra\darkblack_btb_fx2_rr3.wav
lokey=82
hikey=82
seq_position=3
pitch_keycenter=82

<region>
sample=..\Samples\darkblack\btb_extra\darkblack_btb_fx2_rr4.wav
lokey=82
hikey=82
seq_position=4
pitch_keycenter=82

<region>
sample=..\Samples\darkblack\btb_extra\darkblack_btb_fx3_rr1.wav
lokey=83
hikey=83
pitch_keycenter=83

<region>
sample=..\Samples\darkblack\btb_extra\darkblack_btb_fx3_rr2.wav
lokey=83
hikey=83
seq_position=2
pitch_keycenter=83

<region>
sample=..\Samples\darkblack\btb_extra\darkblack_btb_fx3_rr3.wav
lokey=83
hikey=83
seq_position=3
pitch_keycenter=83

<region>
sample=..\Samples\darkblack\btb_extra\darkblack_btb_fx3_rr4.wav
lokey=83
hikey=83
seq_position=4
pitch_keycenter=83

<region>
sample=..\Samples\darkblack\btb_extra\darkblack_btb_fx4_rr1.wav
lokey=84
hikey=84
pitch_keycenter=84

<region>
sample=..\Samples\darkblack\btb_extra\darkblack_btb_fx4_rr2.wav
lokey=84
hikey=84
seq_position=2
pitch_keycenter=84

<region>
sample=..\Samples\darkblack\btb_extra\darkblack_btb_fx4_rr3.wav
lokey=84
hikey=84
seq_position=3
pitch_keycenter=84

<region>
sample=..\Samples\darkblack\btb_extra\darkblack_btb_fx4_rr4.wav
lokey=84
hikey=84
seq_position=4
pitch_keycenter=84
